<svg id="artwork" xmlns="http://www.w3.org/2000/svg" xmlns:xlink="http://www.w3.org/1999/xlink" viewBox="0 0 120 35.56"><defs><style>.cls-1{fill:#fff;}.cls-2{fill:#a6a6a6;}.cls-3{fill:url(#linear-gradient);}</style><linearGradient id="linear-gradient" x1="-262.32" y1="383.62" x2="-262.32" y2="385.35" gradientTransform="matrix(74.17, 0, 0, -74.13, 19545.63, 28475.33)" gradientUnits="userSpaceOnUse"><stop offset="0" stop-color="#1a1a1a" stop-opacity="0.1"/><stop offset="0.12" stop-color="#212121" stop-opacity="0.15"/><stop offset="0.31" stop-color="#353535" stop-opacity="0.23"/><stop offset="0.53" stop-color="#575757" stop-opacity="0.32"/><stop offset="0.78" stop-color="#858585" stop-opacity="0.42"/><stop offset="1" stop-color="#b3b3b3" stop-opacity="0.51"/></linearGradient></defs><path class="cls-1" d="M119.2,31.58A3.41,3.41,0,0,1,115.8,35H4.21A3.42,3.42,0,0,1,.79,31.58V4.42A3.42,3.42,0,0,1,4.21,1H115.79a3.41,3.41,0,0,1,3.41,3.41h0V31.58Z" transform="translate(0 -0.22)"/><path class="cls-2" d="M115.79,35.78H4.21A4.21,4.21,0,0,1,0,31.58V4.42A4.2,4.2,0,0,1,4.21.22H115.79A4.22,4.22,0,0,1,120,4.42V31.58a4.21,4.21,0,0,1-4.21,4.2Z" transform="translate(0 -0.22)"/><path d="M119.2,31.58A3.41,3.41,0,0,1,115.8,35H4.21A3.42,3.42,0,0,1,.79,31.58V4.42A3.42,3.42,0,0,1,4.21,1H115.79a3.41,3.41,0,0,1,3.41,3.41h0V31.58Z" transform="translate(0 -0.22)"/><path class="cls-1" d="M26.79,17.81a5.15,5.15,0,0,1,2.46-4.32,5.28,5.28,0,0,0-4.16-2.25c-1.75-.18-3.44,1-4.34,1s-2.28-1-3.76-1a5.55,5.55,0,0,0-4.66,2.84c-2,3.49-.51,8.61,1.42,11.43,1,1.39,2.1,2.93,3.57,2.87s2-.92,3.73-.92,2.24.92,3.74.89,2.53-1.39,3.46-2.78a11.61,11.61,0,0,0,1.59-3.22,5,5,0,0,1-3.05-4.59ZM24,9.39a5.07,5.07,0,0,0,1.16-3.64,5.18,5.18,0,0,0-3.34,1.73A4.79,4.79,0,0,0,20.58,11,4.3,4.3,0,0,0,24,9.39Z" transform="translate(0 -0.22)"/><path class="cls-3" d="M115.79.22H56L79.43,35.78h36.36a4.21,4.21,0,0,0,4.21-4.2V4.42A4.21,4.21,0,0,0,115.79.22Z" transform="translate(0 -0.22)"/><path class="cls-1" d="M47.73,28.23h-2L44.6,24.76H40.76L39.7,28.23h-2L41.55,16.4H43.9l3.83,11.83ZM44.27,23.3l-1-3.09c-.11-.32-.31-1.06-.6-2.23h0c-.12.5-.31,1.25-.57,2.23l-1,3.09Zm13.24.56a4.82,4.82,0,0,1-1.18,3.44,3.49,3.49,0,0,1-2.63,1.13,2.65,2.65,0,0,1-2.44-1.21v4.47h-1.9V22.51c0-.92,0-1.85-.07-2.81H51l.11,1.35h0a3.38,3.38,0,0,1,5.4-.33,4.72,4.72,0,0,1,1,3.14Zm-1.93.07A3.54,3.54,0,0,0,55,21.88,2,2,0,0,0,53.36,21a2,2,0,0,0-1.27.46,2.12,2.12,0,0,0-.74,1.22,1.9,1.9,0,0,0-.09.58v1.42a2.28,2.28,0,0,0,.57,1.57,1.87,1.87,0,0,0,1.48.64A1.94,1.94,0,0,0,55,26.11,3.63,3.63,0,0,0,55.58,23.93Zm11.75-.07a4.83,4.83,0,0,1-1.19,3.44,3.46,3.46,0,0,1-2.63,1.13,2.66,2.66,0,0,1-2.44-1.21v4.47H59.18V22.51c0-.92,0-1.85-.07-2.81h1.67l.1,1.35h0a3.38,3.38,0,0,1,5.4-.33,4.72,4.72,0,0,1,1,3.14Zm-1.94.07a3.47,3.47,0,0,0-.56-2.05,2,2,0,0,0-2.92-.38,2.19,2.19,0,0,0-.75,1.22,2.49,2.49,0,0,0-.09.58v1.42a2.28,2.28,0,0,0,.57,1.57,1.89,1.89,0,0,0,1.49.64,2,2,0,0,0,1.67-.82A3.7,3.7,0,0,0,65.39,23.93Zm12.91,1a3.15,3.15,0,0,1-1,2.46,4.68,4.68,0,0,1-3.23,1A5.63,5.63,0,0,1,71,27.67l.44-1.58a5.29,5.29,0,0,0,2.74.74,2.56,2.56,0,0,0,1.66-.48,1.59,1.59,0,0,0,.6-1.29,1.62,1.62,0,0,0-.49-1.21,4.54,4.54,0,0,0-1.63-.92q-3.11-1.16-3.11-3.39a3,3,0,0,1,1.1-2.38,4.33,4.33,0,0,1,2.9-.93,5.68,5.68,0,0,1,2.69.56l-.48,1.54a4.7,4.7,0,0,0-2.27-.54,2.31,2.31,0,0,0-1.57.49,1.39,1.39,0,0,0-.48,1.07,1.45,1.45,0,0,0,.55,1.16,5.91,5.91,0,0,0,1.72.91,5.83,5.83,0,0,1,2.25,1.44,3,3,0,0,1,.72,2.05Zm6.29-3.79H82.5v4.15c0,1.05.36,1.58,1.1,1.58a3.26,3.26,0,0,0,.84-.09l.06,1.44a4.34,4.34,0,0,1-1.48.21,2.25,2.25,0,0,1-1.75-.69,3.31,3.31,0,0,1-.64-2.3v-4.3H79.39V19.7h1.24V18.14l1.87-.57V19.7h2.09v1.42ZM94,23.9a4.68,4.68,0,0,1-1.13,3.23,4,4,0,0,1-3.12,1.3,3.84,3.84,0,0,1-3-1.25A4.55,4.55,0,0,1,85.64,24a4.63,4.63,0,0,1,1.15-3.25,4,4,0,0,1,3.1-1.26,3.9,3.9,0,0,1,3,1.24A4.54,4.54,0,0,1,94,23.9Zm-2,0a3.8,3.8,0,0,0-.51-2,1.86,1.86,0,0,0-1.7-1,1.91,1.91,0,0,0-1.74,1A3.87,3.87,0,0,0,87.57,24a3.8,3.8,0,0,0,.51,2,1.94,1.94,0,0,0,3.43,0,3.81,3.81,0,0,0,.52-2Zm8.13-2.57a2.92,2.92,0,0,0-.6-.05,1.79,1.79,0,0,0-1.54.75,2.83,2.83,0,0,0-.47,1.69v4.47h-1.9V22.39c0-.9,0-1.79-.06-2.69h1.66l.07,1.63h.05A2.87,2.87,0,0,1,98.32,20a2.3,2.3,0,0,1,1.37-.45,3.38,3.38,0,0,1,.47,0v1.81Zm8.48,2.19a4.11,4.11,0,0,1-.07.86h-5.69a2.51,2.51,0,0,0,.83,1.94,2.86,2.86,0,0,0,1.86.59,6.28,6.28,0,0,0,2.3-.4l.3,1.31a7,7,0,0,1-2.86.53,4.19,4.19,0,0,1-3.12-1.16,4.35,4.35,0,0,1-1.13-3.14,4.9,4.9,0,0,1,1-3.21,3.65,3.65,0,0,1,3-1.37,3.18,3.18,0,0,1,2.79,1.37,4.6,4.6,0,0,1,.75,2.68Zm-1.81-.49a2.58,2.58,0,0,0-.36-1.46,1.68,1.68,0,0,0-1.51-.79,1.79,1.79,0,0,0-1.51.78,2.72,2.72,0,0,0-.56,1.47Z" transform="translate(0 -0.22)"/><path class="cls-1" d="M40.21,12.22a12.89,12.89,0,0,1-1.36-.07V6.43a10.67,10.67,0,0,1,1.6-.12c2.18,0,3.18,1.07,3.18,2.81C43.63,11.13,42.44,12.22,40.21,12.22ZM40.53,7a3.92,3.92,0,0,0-.75.06v4.35a4.25,4.25,0,0,0,.63,0,2.06,2.06,0,0,0,2.23-2.33A1.9,1.9,0,0,0,40.53,7Zm6.22,5.22a2,2,0,0,1-2-2.16,2,2,0,0,1,2.09-2.21,2,2,0,0,1,2,2.15,2.05,2.05,0,0,1-2.09,2.22Zm0-3.69c-.67,0-1.1.63-1.1,1.51s.44,1.49,1.09,1.49,1.1-.67,1.1-1.51-.43-1.49-1.09-1.49Zm9-.6-1.32,4.2h-.85l-.54-1.83A12.11,12.11,0,0,1,52.78,9h0a8.6,8.6,0,0,1-.34,1.35l-.57,1.83H51L49.75,8h1l.47,2c.11.47.21.92.29,1.34h0A12.88,12.88,0,0,1,51.83,10l.59-2h.76l.57,2c.14.48.25.94.34,1.38h0a11.66,11.66,0,0,1,.28-1.38l.51-2Zm4.83,4.2h-.94V9.76c0-.74-.28-1.12-.84-1.12a1,1,0,0,0-.93,1v2.5H57v-3q0-.55,0-1.2h.82l0,.65h0a1.5,1.5,0,0,1,1.33-.73c.88,0,1.46.67,1.46,1.77v2.51Zm2.57,0h-.94V6.05h.94Zm3.39.09a2,2,0,0,1-2-2.16,2,2,0,0,1,2.09-2.21,2,2,0,0,1,2,2.15,2.05,2.05,0,0,1-2.09,2.22Zm0-3.69c-.67,0-1.11.63-1.11,1.51s.44,1.49,1.1,1.49,1.09-.67,1.09-1.51-.43-1.49-1.08-1.49Zm5.73,3.6-.07-.49h0a1.42,1.42,0,0,1-1.22.58A1.23,1.23,0,0,1,69.78,11c0-1,.9-1.57,2.45-1.57V9.38c0-.55-.29-.83-.87-.83a1.93,1.93,0,0,0-1.09.31l-.19-.61a2.7,2.7,0,0,1,1.44-.36c1.09,0,1.65.57,1.65,1.73v1.55a6.58,6.58,0,0,0,.06,1Zm-.13-2.09c-1,0-1.56.25-1.56.84a.6.6,0,0,0,.64.66.89.89,0,0,0,.92-.86Zm5.43,2.09,0-.68h0a1.39,1.39,0,0,1-1.34.77,1.91,1.91,0,0,1-1.76-2.14,2,2,0,0,1,1.83-2.23,1.28,1.28,0,0,1,1.19.57h0V6.05h.94v5c0,.4,0,.78,0,1.13ZM77.55,9.7a1,1,0,0,0-1-1.09c-.69,0-1.11.61-1.11,1.48s.44,1.42,1.09,1.42a1,1,0,0,0,1-1.11V9.7Zm6.85,2.56a2,2,0,0,1-2-2.16,2,2,0,0,1,2.09-2.21,2,2,0,0,1,2,2.15,2,2,0,0,1-2.09,2.22Zm0-3.69c-.67,0-1.11.63-1.11,1.51s.44,1.49,1.1,1.49,1.09-.67,1.09-1.51-.43-1.49-1.08-1.49Zm7.06,3.6h-.93V9.76c0-.74-.28-1.12-.84-1.12a1,1,0,0,0-.94,1v2.5h-.93v-3q0-.55,0-1.2h.82l0,.65h0a1.5,1.5,0,0,1,1.33-.73c.88,0,1.45.67,1.45,1.76Zm6.28-3.5h-1v2c0,.52.18.77.54.77a1.71,1.71,0,0,0,.42,0l0,.71a2,2,0,0,1-.72.1c-.74,0-1.18-.4-1.18-1.46V8.67h-.61V8h.61V7.2l.92-.27V8h1v.7Zm4.93,3.5h-.93V9.78c0-.75-.29-1.13-.85-1.13a.91.91,0,0,0-.93,1v2.53h-.93V6.05H100V8.57h0a1.4,1.4,0,0,1,1.26-.68c.89,0,1.43.69,1.43,1.78v2.5Zm5.05-1.88H105a1.21,1.21,0,0,0,1.32,1.25,3.15,3.15,0,0,0,1.13-.2l.14.64a3.33,3.33,0,0,1-1.4.26,2,2,0,0,1-2.09-2.11,2,2,0,0,1,2-2.25,1.76,1.76,0,0,1,1.75,2,2,2,0,0,1,0,.42Zm-.85-.66c0-.65-.33-1.11-.92-1.11a1.11,1.11,0,0,0-1,1.11Z" transform="translate(0 -0.22)"/></svg>