<?xml version="1.0" encoding="utf-8"?>
<!-- Generator: Adobe Illustrator 24.1.2, SVG Export Plug-In . SVG Version: 6.00 Build 0)  -->
<svg version="1.1" id="artwork" xmlns="http://www.w3.org/2000/svg" xmlns:xlink="http://www.w3.org/1999/xlink" x="0px" y="0px"
	 viewBox="0 0 120 36" style="enable-background:new 0 0 120 36;" xml:space="preserve">
<style type="text/css">
	.st0{fill:#A6A6A6;}
	.st1{fill:#FFFFFF;stroke:#FFFFFF;stroke-width:0.2;stroke-miterlimit:10;}
	.st2{fill:#FFFFFF;}
	.st3{fill:url(#SVGID_1_);}
	.st4{fill:url(#SVGID_2_);}
	.st5{fill:url(#SVGID_3_);}
	.st6{fill:url(#SVGID_4_);}
	.st7{opacity:0.2;enable-background:new    ;}
	.st8{opacity:0.12;enable-background:new    ;}
	.st9{opacity:0.25;fill:#FFFFFF;enable-background:new    ;}
</style>
<g>
	<g>
		<path d="M115.6,35.8H4.4c-2.4,0-4.4-2-4.4-4.4V4.7c0-2.4,2-4.4,4.4-4.4h111.1c2.4,0,4.4,2,4.4,4.4v26.7
			C120,33.8,118,35.8,115.6,35.8z"/>
	</g>
	<g>
		<g>
			<path class="st0" d="M115.6,0.9c2.1,0,3.7,1.7,3.7,3.7v26.7c0,2.1-1.7,3.7-3.7,3.7H4.4c-2.1,0-3.7-1.7-3.7-3.7V4.7
				c0-2.1,1.7-3.7,3.7-3.7H115.6 M115.6,0.2H4.4C2,0.2,0,2.2,0,4.7v26.7c0,2.4,2,4.4,4.4,4.4h111.1c2.4,0,4.4-2,4.4-4.4V4.7
				C120,2.2,118,0.2,115.6,0.2L115.6,0.2z"/>
		</g>
	</g>
	<g>
		<path class="st1" d="M42.1,9.3c0,0.7-0.2,1.3-0.7,1.8c-0.5,0.5-1.2,0.8-2,0.8c-0.8,0-1.4-0.3-2-0.8c-0.5-0.5-0.8-1.2-0.8-2
			c0-0.8,0.3-1.5,0.8-2c0.5-0.5,1.2-0.8,2-0.8c0.4,0,0.7,0.1,1.1,0.2c0.3,0.1,0.6,0.3,0.8,0.6L41,7.6C40.6,7.2,40.1,7,39.5,7
			c-0.6,0-1,0.2-1.5,0.6c-0.4,0.4-0.6,0.9-0.6,1.5s0.2,1.1,0.6,1.5c0.4,0.4,0.9,0.6,1.5,0.6c0.6,0,1.1-0.2,1.5-0.6
			c0.3-0.3,0.4-0.6,0.4-1.1h-1.9V8.9h2.6C42.1,9.1,42.1,9.2,42.1,9.3z"/>
		<path class="st1" d="M46.2,7.1h-2.4v1.7H46v0.6h-2.2v1.7h2.4v0.7h-3.1V6.4h3.1V7.1z"/>
		<path class="st1" d="M49.1,11.8h-0.7V7.1H47V6.4h3.7v0.7h-1.5V11.8z"/>
		<path class="st1" d="M53.3,11.8V6.4H54v5.3H53.3z"/>
		<path class="st1" d="M57,11.8h-0.7V7.1h-1.5V6.4h3.7v0.7H57V11.8z"/>
		<path class="st1" d="M65.4,11.1c-0.5,0.5-1.2,0.8-2,0.8c-0.8,0-1.4-0.3-2-0.8c-0.5-0.5-0.8-1.2-0.8-2s0.3-1.4,0.8-2
			c0.5-0.5,1.2-0.8,2-0.8c0.8,0,1.4,0.3,2,0.8c0.5,0.5,0.8,1.2,0.8,2C66.2,9.9,66,10.5,65.4,11.1z M62,10.6c0.4,0.4,0.9,0.6,1.4,0.6
			s1.1-0.2,1.4-0.6c0.4-0.4,0.6-0.9,0.6-1.5c0-0.6-0.2-1.1-0.6-1.5C64.5,7.2,64,7,63.5,7S62.4,7.2,62,7.6c-0.4,0.4-0.6,0.9-0.6,1.5
			C61.4,9.7,61.6,10.2,62,10.6z"/>
		<path class="st1" d="M67.2,11.8V6.4H68l2.6,4.1h0l0-1V6.4h0.7v5.3h-0.7l-2.7-4.3h0l0,1v3.3H67.2z"/>
	</g>
	<path class="st2" d="M60.6,19.6c-2.1,0-3.8,1.6-3.8,3.8c0,2.2,1.7,3.8,3.8,3.8c2.1,0,3.8-1.6,3.8-3.8
		C64.4,21.1,62.7,19.6,60.6,19.6z M60.6,25.6c-1.1,0-2.1-0.9-2.1-2.3c0-1.4,1-2.3,2.1-2.3c1.1,0,2.1,0.9,2.1,2.3
		C62.7,24.7,61.7,25.6,60.6,25.6z M52.3,19.6c-2.1,0-3.8,1.6-3.8,3.8c0,2.2,1.7,3.8,3.8,3.8c2.1,0,3.8-1.6,3.8-3.8
		C56.1,21.1,54.4,19.6,52.3,19.6z M52.3,25.6c-1.1,0-2.1-0.9-2.1-2.3c0-1.4,1-2.3,2.1-2.3c1.1,0,2.1,0.9,2.1,2.3
		C54.4,24.7,53.4,25.6,52.3,25.6z M42.4,20.7v1.6h3.8c-0.1,0.9-0.4,1.6-0.9,2c-0.6,0.6-1.4,1.2-3,1.2c-2.4,0-4.2-1.9-4.2-4.3
		s1.8-4.3,4.2-4.3c1.3,0,2.2,0.5,2.9,1.1l1.1-1.1c-1-0.9-2.2-1.6-4-1.6c-3.2,0-6,2.6-6,5.9c0,3.2,2.7,5.9,6,5.9
		c1.7,0,3.1-0.6,4.1-1.6c1.1-1.1,1.4-2.5,1.4-3.8c0-0.4,0-0.7-0.1-1H42.4z M82.7,22c-0.3-0.8-1.3-2.4-3.2-2.4
		c-1.9,0-3.6,1.5-3.6,3.8c0,2.1,1.6,3.8,3.8,3.8c1.7,0,2.7-1.1,3.2-1.7l-1.3-0.9c-0.4,0.6-1,1-1.9,1c-0.8,0-1.4-0.4-1.8-1.1l5.1-2.1
		L82.7,22z M77.6,23.2c0-1.5,1.1-2.2,2-2.2c0.7,0,1.2,0.3,1.4,0.8L77.6,23.2z M73.4,26.9h1.7V15.8h-1.7V26.9z M70.7,20.4L70.7,20.4
		c-0.4-0.4-1.1-0.8-2-0.8c-1.9,0-3.6,1.7-3.6,3.8c0,2.1,1.7,3.8,3.6,3.8c0.9,0,1.6-0.4,2-0.9h0.1v0.5c0,1.4-0.8,2.2-2,2.2
		c-1,0-1.6-0.7-1.9-1.3l-1.4,0.6c0.4,1,1.5,2.2,3.4,2.2c1.9,0,3.6-1.1,3.6-3.9v-6.8h-1.6V20.4z M68.8,25.6c-1.1,0-2.1-1-2.1-2.3
		c0-1.3,1-2.3,2.1-2.3c1.1,0,2,1,2,2.3C70.8,24.7,70,25.6,68.8,25.6z M90.5,15.8h-4v11.1h1.7v-4.2h2.3c1.8,0,3.6-1.3,3.6-3.5
		S92.3,15.8,90.5,15.8z M90.5,21.1h-2.4v-3.8h2.4c1.2,0,1.9,1,1.9,1.9C92.5,20.1,91.8,21.1,90.5,21.1z M100.8,19.5
		c-1.2,0-2.4,0.5-3,1.7l1.5,0.6c0.3-0.6,0.9-0.8,1.5-0.8c0.9,0,1.7,0.5,1.7,1.4v0.1c-0.3-0.2-0.9-0.4-1.7-0.4
		c-1.6,0-3.2,0.9-3.2,2.5c0,1.5,1.3,2.4,2.8,2.4c1.1,0,1.7-0.5,2.1-1.1h0.1v0.9h1.6v-4.3C104.2,20.6,102.7,19.5,100.8,19.5z
		 M100.6,25.6c-0.5,0-1.3-0.3-1.3-0.9c0-0.9,0.9-1.2,1.8-1.2c0.7,0,1.1,0.2,1.5,0.4C102.4,24.9,101.5,25.6,100.6,25.6z M110,19.8
		l-1.9,4.8H108l-2-4.8h-1.8l3,6.7l-1.7,3.7h1.7l4.6-10.5H110z M95.1,26.9h1.7V15.8h-1.7V26.9z"/>
	<g>
		
			<linearGradient id="SVGID_1_" gradientUnits="userSpaceOnUse" x1="19.3775" y1="151.5922" x2="4.4598" y2="136.6745" gradientTransform="matrix(1 0 0 -1 0 159.5564)">
			<stop  offset="0" style="stop-color:#00A0FF"/>
			<stop  offset="6.574450e-03" style="stop-color:#00A1FF"/>
			<stop  offset="0.2601" style="stop-color:#00BEFF"/>
			<stop  offset="0.5122" style="stop-color:#00D2FF"/>
			<stop  offset="0.7604" style="stop-color:#00DFFF"/>
			<stop  offset="1" style="stop-color:#00E3FF"/>
		</linearGradient>
		<path class="st3" d="M9.3,6.9C9,7.2,8.9,7.6,8.9,8.2v19.7c0,0.6,0.2,1,0.4,1.2l0.1,0.1l11-11V18v-0.1L9.3,6.9L9.3,6.9z"/>
		
			<linearGradient id="SVGID_2_" gradientUnits="userSpaceOnUse" x1="30.0749" y1="141.5551" x2="8.5666" y2="141.5551" gradientTransform="matrix(1 0 0 -1 0 159.5564)">
			<stop  offset="0" style="stop-color:#FFE000"/>
			<stop  offset="0.4087" style="stop-color:#FFBD00"/>
			<stop  offset="0.7754" style="stop-color:#FFA500"/>
			<stop  offset="1" style="stop-color:#FF9C00"/>
		</linearGradient>
		<path class="st4" d="M24,21.8l-3.7-3.7V18v-0.1l3.7-3.7l0.1,0l4.3,2.5c1.2,0.7,1.2,1.9,0,2.6L24,21.8L24,21.8z"/>
		
			<linearGradient id="SVGID_3_" gradientUnits="userSpaceOnUse" x1="22.0683" y1="139.5154" x2="1.8387" y2="119.2859" gradientTransform="matrix(1 0 0 -1 0 159.5564)">
			<stop  offset="0" style="stop-color:#FF3A44"/>
			<stop  offset="1" style="stop-color:#C31162"/>
		</linearGradient>
		<path class="st5" d="M24.1,21.8L20.4,18L9.3,29.1c0.4,0.4,1.1,0.5,1.8,0.1L24.1,21.8"/>
		
			<linearGradient id="SVGID_4_" gradientUnits="userSpaceOnUse" x1="6.4864" y1="159.1776" x2="15.5198" y2="150.1442" gradientTransform="matrix(1 0 0 -1 0 159.5564)">
			<stop  offset="0" style="stop-color:#32A071"/>
			<stop  offset="6.850000e-02" style="stop-color:#2DA771"/>
			<stop  offset="0.4762" style="stop-color:#15CF74"/>
			<stop  offset="0.8009" style="stop-color:#06E775"/>
			<stop  offset="1" style="stop-color:#00F076"/>
		</linearGradient>
		<path class="st6" d="M24.1,14.2l-13-7.4c-0.8-0.4-1.4-0.4-1.8,0.1L20.4,18L24.1,14.2z"/>
		<g>
			<path class="st7" d="M24,21.7L11.1,29c-0.7,0.4-1.4,0.4-1.8,0l0,0l-0.1,0.1l0,0l0.1,0.1l0,0c0.4,0.4,1.1,0.4,1.8,0L24,21.7
				L24,21.7z"/>
			<path class="st8" d="M9.3,28.9c-0.3-0.3-0.4-0.7-0.4-1.2v0.1c0,0.6,0.2,1,0.4,1.2V28.9L9.3,28.9z"/>
		</g>
		<path class="st8" d="M28.5,19.2L24,21.7l0.1,0.1l4.3-2.5c0.6-0.4,0.9-0.8,0.9-1.3l0,0C29.3,18.4,29,18.8,28.5,19.2z"/>
		<path class="st9" d="M11.1,7l17.3,9.8c0.6,0.3,0.9,0.7,0.9,1.2l0,0c0-0.5-0.3-0.9-0.9-1.3L11.1,6.9C9.9,6.2,8.9,6.7,8.9,8.2v0.1
			C8.9,6.9,9.9,6.3,11.1,7z"/>
	</g>
</g>
</svg>
