<svg width="20" height="20" viewBox="0 0 20 20" fill="none" xmlns="http://www.w3.org/2000/svg">
<g id="gas-station">
<path id="Path" d="M11.6666 9.16667H12.5C13.4204 9.16667 14.1666 9.91286 14.1666 10.8333V13.3333C14.1666 14.0237 14.7263 14.5833 15.4166 14.5833C16.107 14.5833 16.6666 14.0237 16.6666 13.3333V7.5L14.1666 5" stroke="#0F0F0F" stroke-width="1.75" stroke-linecap="round" stroke-linejoin="round"/>
<path id="Path_2" d="M3.33337 16.6667V5C3.33337 4.07953 4.07957 3.33333 5.00004 3.33333H10C10.9205 3.33333 11.6667 4.07953 11.6667 5V16.6667" stroke="#0F0F0F" stroke-width="1.75" stroke-linecap="round" stroke-linejoin="round"/>
<path id="Path_3" d="M2.5 16.6667H12.5" stroke="#0F0F0F" stroke-width="1.75" stroke-linecap="round" stroke-linejoin="round"/>
<path id="Path_4" d="M15 5.83333V6.66667C15 7.1269 15.3731 7.5 15.8333 7.5H16.6667" stroke="#0F0F0F" stroke-width="1.75" stroke-linecap="round" stroke-linejoin="round"/>
<path id="Path_5" d="M3.33337 9.16667H11.6667" stroke="#0F0F0F" stroke-width="1.75" stroke-linecap="round" stroke-linejoin="round"/>
</g>
</svg>
